<svg width="487" height="371" viewBox="0 0 487 371" fill="none" xmlns="http://www.w3.org/2000/svg">
<g filter="url(#filter0_d_218_5259)">
<rect x="28" y="14" width="431" height="315.455" rx="2.75106" fill="white"/>
</g>
<path d="M112.468 90.6177C112.798 90.6177 113.079 90.7339 113.312 90.9662C113.544 91.1985 113.66 91.4797 113.66 91.8099C113.66 92.14 113.544 92.4212 113.312 92.6535C113.079 92.8858 112.798 93.002 112.468 93.002C112.15 93.002 111.875 92.8858 111.643 92.6535C111.41 92.4212 111.294 92.14 111.294 91.8099C111.294 91.4797 111.41 91.1985 111.643 90.9662C111.875 90.7339 112.15 90.6177 112.468 90.6177ZM118.704 90.8378V98.8342C118.704 100.35 118.233 101.53 117.292 102.374C116.35 103.23 115.085 103.658 113.495 103.658H111.679C109.992 103.658 108.678 103.187 107.736 102.246C106.893 101.402 106.471 100.265 106.471 98.8342V95.5513L107.608 94.6343H108.708V98.6325C108.708 99.7818 109.002 100.595 109.589 101.072C110.176 101.549 111.178 101.787 112.596 101.787C113.966 101.787 114.938 101.567 115.513 101.127C116.148 100.638 116.466 99.8063 116.466 98.6325V90.8378H118.704ZM122.733 90.7278C123.149 90.6544 123.632 90.6177 124.182 90.6177C125.588 90.6177 126.725 91.0701 127.593 91.9749C128.363 92.7941 128.749 93.809 128.749 95.0194V96.7801C128.749 97.0613 128.743 97.2692 128.73 97.4037H129.207V99.2744H128.969L128.363 98.5225H128.308C128.211 98.6325 128.107 98.7364 127.997 98.8342C127.63 99.1277 127.22 99.2744 126.768 99.2744H120.881V97.4037H126.053C126.358 97.4037 126.511 97.2509 126.511 96.9452V95.2395C126.511 94.3959 126.254 93.7173 125.741 93.2037C125.264 92.7269 124.573 92.4701 123.668 92.4334C123.253 92.4334 122.941 92.4579 122.733 92.5068V90.7278ZM132.953 97.4037C132.733 97.1469 132.537 96.7985 132.366 96.3583C132.183 95.8448 132.091 95.3068 132.091 94.7443C132.091 93.3505 132.586 92.2806 133.576 91.5348C134.383 90.9234 135.398 90.6177 136.621 90.6177C137.269 90.6177 137.941 90.7217 138.638 90.9295V92.6902C137.941 92.5313 137.342 92.4518 136.841 92.4518C135.166 92.4518 134.328 93.2893 134.328 94.9644C134.328 95.5024 134.457 95.9793 134.714 96.395C135.142 97.0674 135.765 97.4037 136.584 97.4037H140.142V98.1373L139.225 99.2744H129.266V97.4037H132.953ZM149.614 86.8029C149.944 86.8029 150.226 86.9191 150.458 87.1514C150.69 87.3837 150.806 87.6649 150.806 87.9951C150.806 88.313 150.69 88.5881 150.458 88.8204C150.226 89.0527 149.944 89.1688 149.614 89.1688C149.284 89.1688 149.003 89.0527 148.771 88.8204C148.538 88.5881 148.422 88.313 148.422 87.9951C148.422 87.6649 148.538 87.3837 148.771 87.1514C149.003 86.9191 149.284 86.8029 149.614 86.8029ZM152.402 86.8029C152.732 86.8029 153.013 86.9191 153.246 87.1514C153.478 87.3837 153.594 87.6649 153.594 87.9951C153.594 88.313 153.478 88.5881 153.246 88.8204C153.013 89.0527 152.732 89.1688 152.402 89.1688C152.084 89.1688 151.809 89.0527 151.577 88.8204C151.344 88.5881 151.228 88.313 151.228 87.9951C151.228 87.6649 151.344 87.3837 151.577 87.1514C151.809 86.9191 152.084 86.8029 152.402 86.8029ZM153.594 90.3426V96.9452C153.594 97.0919 153.637 97.2019 153.723 97.2753C153.796 97.3609 153.894 97.4037 154.016 97.4037H154.53V99.2744H153.374C152.812 99.2744 152.304 99.0482 151.852 98.5958C151.155 99.1705 150.378 99.4578 149.523 99.4578C148.557 99.4578 147.725 99.1521 147.028 98.5408C146.099 97.6727 145.634 96.5111 145.634 95.0561C145.634 93.7234 146.062 92.6168 146.918 91.7365C147.701 90.9417 148.661 90.5444 149.798 90.5444C150.433 90.5444 151.069 90.6789 151.705 90.9479L152.494 90.3426H153.594ZM151.357 92.7085C150.929 92.5496 150.519 92.4701 150.128 92.4701C149.468 92.4701 148.923 92.7147 148.496 93.2037C148.068 93.6806 147.854 94.3042 147.854 95.0745C147.854 95.8448 148.043 96.4622 148.422 96.9268C148.813 97.3915 149.333 97.6238 149.981 97.6238C150.421 97.6238 150.88 97.526 151.357 97.3303V92.7085ZM160.107 86.1427V93.919C161.77 91.7059 163.8 90.5994 166.196 90.5994C167.664 90.5994 168.868 91.064 169.81 91.9933C170.678 92.8247 171.112 93.8701 171.112 95.1295V96.8718C171.112 96.9207 171.106 97.0124 171.093 97.1469C171.093 97.2692 171.093 97.3548 171.093 97.4037H171.699V99.2744H171.332L170.727 98.5225H170.672C170.268 99.0238 169.755 99.2744 169.131 99.2744H154.587V97.4037H157.888V86.1427H160.107ZM164.986 86.8029C165.316 86.8029 165.597 86.9191 165.83 87.1514C166.062 87.3837 166.178 87.6649 166.178 87.9951C166.178 88.313 166.062 88.5881 165.83 88.8204C165.597 89.0527 165.316 89.1688 164.986 89.1688C164.668 89.1688 164.393 89.0527 164.161 88.8204C163.928 88.5881 163.812 88.313 163.812 87.9951C163.812 87.6649 163.928 87.3837 164.161 87.1514C164.393 86.9191 164.668 86.8029 164.986 86.8029ZM168.874 95.2395C168.862 94.3103 168.501 93.6011 167.792 93.112C167.254 92.7208 166.6 92.5251 165.83 92.5251C164.925 92.5251 164.051 92.8064 163.207 93.3688C161.972 94.188 160.939 95.533 160.107 97.4037H168.416C168.721 97.4037 168.874 97.2509 168.874 96.9452V95.2395ZM178.866 86.8029C179.196 86.8029 179.477 86.9191 179.709 87.1514C179.942 87.3837 180.058 87.6649 180.058 87.9951C180.058 88.313 179.942 88.5881 179.709 88.8204C179.477 89.0527 179.196 89.1688 178.866 89.1688C178.548 89.1688 178.273 89.0527 178.04 88.8204C177.808 88.5881 177.692 88.313 177.692 87.9951C177.692 87.6649 177.808 87.3837 178.04 87.1514C178.273 86.9191 178.548 86.8029 178.866 86.8029ZM175.436 97.4037C175.155 97.0491 174.935 96.6273 174.776 96.1382C174.641 95.6736 174.574 95.209 174.574 94.7443C174.574 93.6684 174.886 92.7697 175.509 92.0483C176.304 91.0946 177.423 90.6177 178.866 90.6177C179.893 90.6177 180.749 90.8928 181.433 91.4431C182.179 92.0789 182.552 92.9347 182.552 94.0107V97.257C182.552 97.7583 182.387 98.2046 182.057 98.5958C181.666 99.0482 181.17 99.2744 180.571 99.2744H171.75V97.4037H175.436ZM180.315 94.0107C180.315 93.5094 180.143 93.1059 179.801 92.8002C179.532 92.5924 179.22 92.4885 178.866 92.4885C178.071 92.4885 177.496 92.8002 177.142 93.4238C176.909 93.8151 176.793 94.3103 176.793 94.9094C176.793 95.7286 177.05 96.3705 177.564 96.8351C177.979 97.2142 178.523 97.4037 179.196 97.4037H179.856C180.162 97.4037 180.315 97.2509 180.315 96.9452V94.0107ZM187.24 86.1427V96.9452C187.24 97.0674 187.277 97.1653 187.35 97.2386C187.424 97.3487 187.54 97.4037 187.699 97.4037H188.176V99.2744H186.984C186.482 99.2744 186.042 99.0971 185.663 98.7425C185.223 98.3391 185.003 97.8439 185.003 97.257V86.1427H187.24ZM190.657 91.1496C191.818 90.795 192.876 90.6177 193.83 90.6177C195.309 90.6177 196.501 91.0824 197.406 92.0116C198.225 92.843 198.635 93.8946 198.635 95.1662V97.1286V97.4037H199.24V99.2744H198.855L198.25 98.5225H198.213C197.797 99.0238 197.278 99.2744 196.654 99.2744H188.218V97.4037H195.939C196.245 97.4037 196.397 97.2509 196.397 96.9452V95.2945C196.397 94.4631 196.116 93.7967 195.554 93.2954C195.004 92.7819 194.276 92.5251 193.371 92.5251C192.772 92.5251 191.867 92.6596 190.657 92.9286V91.1496ZM202.574 94.0107C202.574 92.8492 202.977 91.9688 203.784 91.3697C204.42 90.8806 205.288 90.6361 206.389 90.6361C207.465 90.6361 208.376 90.954 209.122 91.5898C210.063 92.3968 210.534 93.54 210.534 95.0194C210.534 96.4133 210.161 97.5688 209.415 98.4858C208.694 99.3783 207.758 99.8246 206.609 99.8246C205.594 99.8246 204.793 99.4456 204.206 98.6875C203.815 99.0788 203.338 99.2744 202.776 99.2744H199.273V97.4037H202.097C202.232 97.4037 202.348 97.3548 202.446 97.257C202.531 97.1714 202.574 97.0674 202.574 96.9452V94.0107ZM204.793 97.2019C205.246 97.691 205.765 97.9356 206.352 97.9356C206.927 97.9356 207.398 97.6849 207.764 97.1836C208.131 96.6701 208.315 96.0098 208.315 95.2028C208.315 94.3225 208.113 93.6317 207.709 93.1304C207.343 92.7024 206.866 92.4885 206.279 92.4885C205.839 92.4885 205.49 92.6291 205.233 92.9103C204.94 93.1793 204.793 93.5461 204.793 94.0107V97.2019ZM217.555 93.1487C217.885 93.1487 218.167 93.2649 218.399 93.4972C218.631 93.7295 218.747 94.0107 218.747 94.3408C218.747 94.6587 218.631 94.9338 218.399 95.1662C218.167 95.3985 217.885 95.5146 217.555 95.5146C217.237 95.5146 216.962 95.3985 216.73 95.1662C216.498 94.9338 216.381 94.6587 216.381 94.3408C216.381 94.0107 216.498 93.7295 216.73 93.4972C216.962 93.2649 217.237 93.1487 217.555 93.1487ZM217.574 97.0002C217.904 97.0002 218.179 97.1164 218.399 97.3487C218.631 97.5688 218.747 97.8439 218.747 98.174C218.747 98.5041 218.631 98.7853 218.399 99.0176C218.167 99.25 217.891 99.3661 217.574 99.3661C217.243 99.3661 216.962 99.25 216.73 99.0176C216.498 98.7853 216.381 98.5041 216.381 98.174C216.381 97.8439 216.498 97.5688 216.73 97.3487C216.962 97.1164 217.243 97.0002 217.574 97.0002ZM223.692 96.0832V98.6325C223.692 99.7941 223.979 100.607 224.554 101.072C225.141 101.549 226.143 101.787 227.562 101.787C228.797 101.787 229.689 101.628 230.24 101.31C230.912 100.931 231.297 100.253 231.395 99.2744H230.258L229.304 98.1006V97.4037H234.366V99.2744H233.669C233.571 100.803 232.96 101.952 231.835 102.722C230.955 103.346 229.836 103.658 228.479 103.658H226.663C225.123 103.658 223.894 103.26 222.977 102.466C221.962 101.634 221.454 100.424 221.454 98.8342V96.9819L222.592 96.0832H223.692ZM226.113 104.722C226.443 104.722 226.724 104.838 226.957 105.07C227.189 105.302 227.305 105.584 227.305 105.914C227.305 106.244 227.189 106.525 226.957 106.757C226.724 106.99 226.443 107.106 226.113 107.106C225.783 107.106 225.502 106.99 225.269 106.757C225.037 106.525 224.921 106.244 224.921 105.914C224.921 105.584 225.037 105.302 225.269 105.07C225.502 104.838 225.783 104.722 226.113 104.722ZM228.901 104.722C229.231 104.722 229.512 104.838 229.744 105.07C229.977 105.302 230.093 105.584 230.093 105.914C230.093 106.244 229.977 106.525 229.744 106.757C229.512 106.99 229.231 107.106 228.901 107.106C228.583 107.106 228.308 106.99 228.075 106.757C227.843 106.525 227.727 106.244 227.727 105.914C227.727 105.584 227.843 105.302 228.075 105.07C228.308 104.838 228.583 104.722 228.901 104.722ZM252.421 90.8378V96.8351V97.4037H253.357V99.2744H252.641L252.036 98.5225H252C251.584 99.0238 251.064 99.2744 250.441 99.2744H246.516L245.911 98.5225H245.856C245.452 99.0238 244.939 99.2744 244.315 99.2744H240.372L239.767 98.5225H239.711C239.308 99.0238 238.794 99.2744 238.171 99.2744H232.962V97.4037H237.456C237.761 97.4037 237.914 97.2509 237.914 96.9452V92.947H240.152V96.8351C240.152 97.0919 240.146 97.2814 240.133 97.4037H243.6C243.905 97.4037 244.058 97.2509 244.058 96.9452V91.8832H246.296V96.7801C246.296 96.8535 246.29 96.9635 246.277 97.1102C246.277 97.2447 246.277 97.3426 246.277 97.4037H249.725C250.031 97.4037 250.184 97.2509 250.184 96.9452V90.8378H252.421ZM258.941 90.8378V97.1286V97.4037H259.876V99.2744H259.234L258.556 98.5225H258.519C258.103 99.0238 257.584 99.2744 256.96 99.2744H253.42V97.4037H256.19C256.361 97.4037 256.483 97.3548 256.557 97.257C256.667 97.1592 256.722 97.0369 256.722 96.8902V90.8378H258.941ZM254.961 100.613C255.291 100.613 255.572 100.729 255.805 100.962C256.037 101.194 256.153 101.475 256.153 101.805C256.153 102.136 256.037 102.417 255.805 102.649C255.572 102.881 255.291 102.998 254.961 102.998C254.631 102.998 254.35 102.881 254.117 102.649C253.885 102.417 253.769 102.136 253.769 101.805C253.769 101.475 253.885 101.194 254.117 100.962C254.35 100.729 254.631 100.613 254.961 100.613ZM257.749 100.613C258.079 100.613 258.36 100.729 258.592 100.962C258.825 101.194 258.941 101.475 258.941 101.805C258.941 102.136 258.825 102.417 258.592 102.649C258.36 102.881 258.079 102.998 257.749 102.998C257.431 102.998 257.156 102.881 256.923 102.649C256.691 102.417 256.575 102.136 256.575 101.805C256.575 101.475 256.691 101.194 256.923 100.962C257.156 100.729 257.431 100.613 257.749 100.613ZM263.007 88.1051C262.812 87.775 262.714 87.4265 262.714 87.0597C262.714 86.5339 262.867 86.1182 263.172 85.8125C263.478 85.4946 263.888 85.3357 264.401 85.3357C264.731 85.3357 265.049 85.3846 265.355 85.4824V86.4545C265.062 86.3811 264.835 86.3444 264.676 86.3444C264.444 86.3444 264.248 86.43 264.09 86.6012C263.943 86.7601 263.869 86.968 263.869 87.2248C263.869 87.4571 263.937 87.6466 264.071 87.7933C264.206 88.0012 264.426 88.1051 264.731 88.1051H265.96V88.5636L265.538 89.0955H262.292V88.1051H263.007ZM265.447 90.8378V97.257C265.447 97.7338 265.288 98.174 264.97 98.5775C264.566 99.0421 264.065 99.2744 263.466 99.2744H259.926V97.4037H262.751C262.885 97.4037 263.001 97.3548 263.099 97.257C263.185 97.1714 263.228 97.0674 263.228 96.9452V90.8378H265.447ZM272.028 90.8378V97.4037H272.964V99.2744H272.01C271.912 100.742 271.331 101.867 270.267 102.649C269.387 103.297 268.305 103.621 267.021 103.621C266.801 103.621 266.563 103.615 266.306 103.603L265.407 102.484V101.695C265.799 101.756 266.178 101.787 266.544 101.787C268.709 101.787 269.791 100.736 269.791 98.6325V90.8378H272.028ZM278.548 86.1427V97.257C278.548 97.7705 278.383 98.2107 278.053 98.5775C277.674 99.0421 277.179 99.2744 276.567 99.2744H273.027V97.4037H275.852C275.986 97.4037 276.103 97.3548 276.2 97.257C276.286 97.1714 276.329 97.0674 276.329 96.9452V86.1427H278.548ZM283.503 86.1427V98.8159L282.366 99.7329H281.266V86.1427H283.503ZM293.781 86.8029C294.111 86.8029 294.392 86.9191 294.624 87.1514C294.856 87.3837 294.973 87.6649 294.973 87.9951C294.973 88.313 294.856 88.5881 294.624 88.8204C294.392 89.0527 294.111 89.1688 293.781 89.1688C293.45 89.1688 293.169 89.0588 292.937 88.8387C292.717 88.6064 292.607 88.3252 292.607 87.9951C292.607 87.6649 292.717 87.3837 292.937 87.1514C293.169 86.9191 293.45 86.8029 293.781 86.8029ZM294.899 90.8378V97.4037H295.835V99.2744H294.881C294.783 100.754 294.196 101.885 293.12 102.667C292.24 103.303 291.152 103.621 289.856 103.621C289.697 103.621 289.471 103.615 289.177 103.603L288.278 102.484V101.695C288.67 101.756 289.049 101.787 289.415 101.787C291.58 101.787 292.662 100.736 292.662 98.6325V90.8378H294.899ZM304.629 85.8859V87.9584L300.795 90.2876C302.373 90.8623 303.638 91.8037 304.592 93.112C305.448 94.3103 305.876 95.6186 305.876 97.0369C305.876 97.6971 305.686 98.2351 305.307 98.6508C304.94 99.0666 304.464 99.2744 303.877 99.2744H295.88V97.4037H303.161C303.479 97.4037 303.638 97.2447 303.638 96.9268C303.54 95.7775 303.119 94.7749 302.373 93.919C301.37 92.733 299.995 92.0483 298.246 91.8649C298.161 91.8649 298.118 91.816 298.118 91.7182V89.6273L304.629 85.8859ZM312.639 90.8378V97.4037H313.575V99.2744H312.621C312.523 100.742 311.942 101.867 310.879 102.649C309.998 103.297 308.916 103.621 307.632 103.621C307.412 103.621 307.174 103.615 306.917 103.603L306.018 102.484V101.695C306.41 101.756 306.789 101.787 307.156 101.787C309.32 101.787 310.402 100.736 310.402 98.6325V90.8378H312.639ZM316.903 97.4037C316.61 96.6945 316.463 95.8998 316.463 95.0194C316.463 93.5767 316.909 92.4579 317.802 91.6631C318.548 90.9907 319.501 90.6483 320.663 90.6361C321.702 90.6361 322.552 90.8806 323.212 91.3697C324.019 91.981 324.423 92.8614 324.423 94.0107V96.9452C324.423 97.0552 324.453 97.1592 324.514 97.257C324.612 97.3548 324.722 97.4037 324.845 97.4037H325.01V99.2744H324.203C323.652 99.2744 323.182 99.0788 322.79 98.6875C322.191 99.4456 321.397 99.8246 320.406 99.8246C319.342 99.8246 318.438 99.4334 317.692 98.6508H317.655L317.142 99.2744H313.639V97.4037H316.903ZM322.185 94.0107C322.185 93.5583 322.045 93.1915 321.763 92.9103C321.507 92.6291 321.14 92.4885 320.663 92.4885C320.064 92.4885 319.581 92.7208 319.214 93.1854C318.86 93.65 318.682 94.2736 318.682 95.0561C318.682 95.912 318.866 96.6089 319.232 97.1469C319.599 97.6849 320.07 97.9539 320.645 97.9539C321.17 97.9539 321.684 97.7033 322.185 97.2019V94.0107ZM330.59 86.1427V97.257C330.59 97.7705 330.425 98.2107 330.095 98.5775C329.716 99.0421 329.221 99.2744 328.61 99.2744H325.07V97.4037H327.894C328.029 97.4037 328.145 97.3548 328.243 97.257C328.328 97.1714 328.371 97.0674 328.371 96.9452V86.1427H330.59ZM335.546 86.1427V98.8159L334.409 99.7329H333.308V86.1427H335.546Z" fill="#E5B83F"/>
<path d="M220.136 146.588V143.991H217.524V142.964H220.136V140.338H221.148V142.964H223.76V143.991H221.148V146.588H220.136ZM230.078 141.585C229.511 142.387 228.772 142.788 227.862 142.788C226.874 142.788 226.121 142.431 225.603 141.717C225.182 141.14 224.972 140.406 224.972 139.516C224.972 138.44 225.285 137.594 225.911 136.978C226.468 136.41 227.207 136.127 228.126 136.127C229.486 136.127 230.406 136.743 230.885 137.975C231.188 138.719 231.34 139.78 231.34 141.159C231.34 145.003 229.975 146.926 227.246 146.926C227.002 146.926 226.684 146.906 226.292 146.867L225.823 146.265V145.825C226.214 145.884 226.547 145.913 226.821 145.913C227.994 145.913 228.821 145.595 229.3 144.959C229.78 144.314 230.039 143.189 230.078 141.585ZM228.112 137.256C227.476 137.256 226.982 137.525 226.63 138.063C226.366 138.484 226.234 138.988 226.234 139.575C226.234 140.201 226.4 140.719 226.733 141.13C227.065 141.531 227.486 141.731 227.994 141.731C228.581 141.731 229.056 141.541 229.418 141.159C229.78 140.778 229.96 140.284 229.96 139.677C229.96 138.063 229.344 137.256 228.112 137.256ZM233.874 141.541C234.5 140.729 235.238 140.323 236.089 140.323C237.077 140.323 237.831 140.68 238.349 141.394C238.76 141.971 238.965 142.7 238.965 143.58C238.965 144.656 238.657 145.507 238.041 146.133C237.474 146.691 236.73 146.97 235.811 146.97C233.727 146.97 232.685 145.6 232.685 142.861V142.304C232.685 140.523 233.038 139.076 233.742 137.961C234.495 136.758 235.581 136.156 236.999 136.156C237.175 136.156 237.39 136.166 237.645 136.185L238.144 136.802V137.256C237.752 137.198 237.429 137.168 237.175 137.168C235.287 137.168 234.187 138.626 233.874 141.541ZM237.703 143.522C237.703 142.905 237.537 142.397 237.205 141.996C236.882 141.585 236.466 141.379 235.957 141.379C235.41 141.379 234.906 141.609 234.446 142.069C234.045 142.47 233.845 142.905 233.845 143.375C233.845 144.099 234.03 144.695 234.402 145.165C234.764 145.615 235.243 145.84 235.84 145.84C236.388 145.84 236.833 145.629 237.175 145.209C237.527 144.778 237.703 144.216 237.703 143.522ZM246.282 136.288V137.212L242.79 146.104L241.939 146.793H241.176L244.991 137.344H239.9V136.288H246.282ZM250.598 146.984C249.297 146.984 248.367 146.304 247.81 144.945C247.448 144.074 247.267 142.993 247.267 141.702C247.267 140.078 247.551 138.738 248.118 137.682C248.676 136.626 249.502 136.097 250.598 136.097C251.664 136.097 252.481 136.611 253.048 137.638C253.645 138.685 253.943 140.025 253.943 141.658C253.943 143.194 253.698 144.426 253.209 145.356C252.632 146.441 251.762 146.984 250.598 146.984ZM252.666 141.687C252.666 138.704 251.977 137.212 250.598 137.212C249.228 137.212 248.543 138.694 248.543 141.658C248.543 142.9 248.656 143.835 248.881 144.461C249.204 145.39 249.776 145.854 250.598 145.854C251.977 145.854 252.666 144.465 252.666 141.687ZM255.444 137.051C256.364 136.454 257.293 136.156 258.232 136.156C259.151 136.156 259.841 136.425 260.301 136.963C260.702 137.433 260.902 138.059 260.902 138.841C260.902 139.457 260.746 140.059 260.433 140.646C260.149 141.145 259.65 141.82 258.936 142.671L256.867 145.018L256.266 145.752H261.078V146.163L260.565 146.793H254.945V145.737L256.06 144.402L258.32 141.776C258.77 141.238 259.088 140.788 259.274 140.426C259.528 139.937 259.655 139.462 259.655 139.002C259.655 138.494 259.504 138.083 259.2 137.77C258.897 137.457 258.491 137.3 257.982 137.3C257.386 137.3 256.765 137.53 256.119 137.99L255.444 137.051ZM265.568 136.449C266.204 136.254 266.723 136.156 267.124 136.156C268.102 136.156 268.884 136.41 269.471 136.919C270.029 137.408 270.307 138.063 270.307 138.885C270.307 140.264 269.696 141.091 268.473 141.365C269.178 141.482 269.73 141.78 270.131 142.26C270.542 142.739 270.748 143.331 270.748 144.035C270.748 145.052 270.352 145.825 269.559 146.353C268.953 146.754 268.195 146.955 267.285 146.955C266.698 146.955 266.111 146.872 265.524 146.705L265.055 146.119V145.664C265.73 145.81 266.322 145.884 266.83 145.884C268.601 145.884 269.486 145.287 269.486 144.094C269.486 143.448 269.217 142.905 268.679 142.465C268.376 142.221 268.053 142.054 267.71 141.966C267.378 141.868 266.884 141.815 266.229 141.805V140.851H267.476C267.945 140.851 268.327 140.7 268.62 140.396C268.923 140.083 269.075 139.682 269.075 139.193C269.075 138.616 268.884 138.161 268.503 137.829C268.121 137.486 267.603 137.315 266.948 137.315C266.625 137.315 266.165 137.379 265.568 137.506V136.449ZM277.095 136.288V143.111H278.65V144.24H277.095V146.236L276.464 146.793H275.848V144.24H271.549V143.14L275.745 136.288H277.095ZM275.848 137.931L272.781 143.111H275.848V137.931ZM284.875 136.288V143.111H286.431V144.24H284.875V146.236L284.244 146.793H283.628V144.24H279.329V143.14L283.526 136.288H284.875ZM283.628 137.931L280.562 143.111H283.628V137.931ZM292.474 141.438C291.212 140.597 290.581 139.624 290.581 138.518C290.581 137.677 290.884 137.046 291.491 136.626C291.97 136.283 292.586 136.112 293.339 136.112C294.23 136.112 294.924 136.342 295.423 136.802C295.902 137.232 296.142 137.824 296.142 138.577C296.142 139.154 296.01 139.638 295.746 140.03C295.491 140.421 295.002 140.876 294.278 141.394C295.853 142.137 296.641 143.125 296.641 144.358C296.641 145.258 296.249 145.947 295.467 146.427C294.87 146.798 294.161 146.984 293.339 146.984C292.361 146.984 291.569 146.745 290.962 146.265C290.366 145.796 290.067 145.15 290.067 144.329C290.067 143.106 290.87 142.142 292.474 141.438ZM293.398 140.939C294.396 140.313 294.895 139.506 294.895 138.518C294.895 138.049 294.758 137.677 294.484 137.403C294.21 137.119 293.838 136.978 293.369 136.978C292.85 136.978 292.459 137.134 292.195 137.447C291.95 137.721 291.828 138.083 291.828 138.533C291.828 138.993 291.946 139.413 292.18 139.795C292.435 140.225 292.841 140.607 293.398 140.939ZM293.383 141.805C292.65 142.157 292.131 142.514 291.828 142.876C291.535 143.228 291.388 143.673 291.388 144.211C291.388 144.759 291.564 145.189 291.916 145.502C292.268 145.806 292.753 145.957 293.369 145.957C293.985 145.957 294.469 145.801 294.821 145.488C295.183 145.175 295.364 144.754 295.364 144.226C295.364 143.717 295.213 143.277 294.909 142.905C294.606 142.534 294.097 142.167 293.383 141.805ZM301.134 146.984C299.833 146.984 298.904 146.304 298.346 144.945C297.984 144.074 297.803 142.993 297.803 141.702C297.803 140.078 298.087 138.738 298.654 137.682C299.212 136.626 300.039 136.097 301.134 136.097C302.2 136.097 303.017 136.611 303.584 137.638C304.181 138.685 304.479 140.025 304.479 141.658C304.479 143.194 304.235 144.426 303.746 145.356C303.169 146.441 302.298 146.984 301.134 146.984ZM303.203 141.687C303.203 138.704 302.513 137.212 301.134 137.212C299.765 137.212 299.08 138.694 299.08 141.658C299.08 142.9 299.192 143.835 299.417 144.461C299.74 145.39 300.312 145.854 301.134 145.854C302.513 145.854 303.203 144.465 303.203 141.687ZM310.896 136.288V143.111H312.451V144.24H310.896V146.236L310.265 146.793H309.649V144.24H305.35V143.14L309.546 136.288H310.896ZM309.649 137.931L306.582 143.111H309.649V137.931Z" fill="#454545"/>
<g clip-path="url(#clip0_218_5259)">
<path d="M336.336 145.336L332.725 143.788C332.571 143.722 332.4 143.709 332.237 143.749C332.074 143.789 331.929 143.881 331.823 144.011L330.224 145.964C327.714 144.781 325.694 142.761 324.511 140.252L326.465 138.653C326.595 138.547 326.687 138.402 326.727 138.239C326.767 138.076 326.753 137.904 326.687 137.75L325.14 134.139C325.067 133.973 324.939 133.837 324.777 133.756C324.615 133.674 324.43 133.651 324.253 133.691L320.9 134.465C320.73 134.504 320.578 134.6 320.469 134.737C320.36 134.874 320.301 135.044 320.301 135.219C320.301 143.488 327.003 150.178 335.26 150.178C335.435 150.178 335.605 150.119 335.742 150.01C335.879 149.901 335.975 149.749 336.014 149.578L336.788 146.225C336.828 146.048 336.805 145.862 336.722 145.699C336.64 145.537 336.503 145.408 336.336 145.336Z" fill="#E5B83F"/>
</g>
<path d="M226.132 183.269V180.672H223.52V179.645H226.132V177.018H227.145V179.645H229.756V180.672H227.145V183.269H226.132ZM236.074 178.265C235.507 179.068 234.768 179.469 233.859 179.469C232.871 179.469 232.118 179.112 231.599 178.397C231.178 177.82 230.968 177.087 230.968 176.197C230.968 175.121 231.281 174.275 231.907 173.658C232.465 173.091 233.203 172.807 234.123 172.807C235.482 172.807 236.402 173.424 236.881 174.656C237.184 175.399 237.336 176.461 237.336 177.84C237.336 181.684 235.971 183.606 233.242 183.606C232.998 183.606 232.68 183.587 232.289 183.547L231.819 182.946V182.506C232.21 182.564 232.543 182.594 232.817 182.594C233.991 182.594 234.817 182.276 235.297 181.64C235.776 180.994 236.035 179.87 236.074 178.265ZM234.108 173.937C233.472 173.937 232.978 174.206 232.626 174.744C232.362 175.165 232.23 175.668 232.23 176.255C232.23 176.881 232.396 177.4 232.729 177.811C233.061 178.212 233.482 178.412 233.991 178.412C234.578 178.412 235.052 178.221 235.414 177.84C235.776 177.458 235.957 176.964 235.957 176.358C235.957 174.744 235.341 173.937 234.108 173.937ZM239.87 178.221C240.496 177.41 241.235 177.004 242.086 177.004C243.074 177.004 243.827 177.361 244.345 178.075C244.756 178.652 244.961 179.381 244.961 180.261C244.961 181.337 244.653 182.188 244.037 182.814C243.47 183.371 242.726 183.65 241.807 183.65C239.723 183.65 238.682 182.281 238.682 179.542V178.984C238.682 177.204 239.034 175.756 239.738 174.641C240.491 173.438 241.577 172.837 242.995 172.837C243.171 172.837 243.387 172.846 243.641 172.866L244.14 173.482V173.937C243.749 173.878 243.426 173.849 243.171 173.849C241.284 173.849 240.183 175.307 239.87 178.221ZM243.7 180.202C243.7 179.586 243.533 179.077 243.201 178.676C242.878 178.265 242.462 178.06 241.954 178.06C241.406 178.06 240.902 178.29 240.442 178.75C240.041 179.151 239.841 179.586 239.841 180.055C239.841 180.779 240.027 181.376 240.398 181.845C240.76 182.295 241.24 182.52 241.836 182.52C242.384 182.52 242.829 182.31 243.171 181.89C243.524 181.459 243.7 180.897 243.7 180.202ZM252.279 172.969V173.893L248.786 182.785L247.935 183.474H247.173L250.987 174.025H245.896V172.969H252.279ZM255.728 178.119C254.466 177.278 253.835 176.304 253.835 175.199C253.835 174.358 254.139 173.727 254.745 173.306C255.224 172.964 255.841 172.793 256.594 172.793C257.484 172.793 258.179 173.023 258.677 173.482C259.157 173.913 259.396 174.504 259.396 175.258C259.396 175.835 259.264 176.319 259 176.71C258.746 177.101 258.257 177.556 257.533 178.075C259.108 178.818 259.895 179.806 259.895 181.039C259.895 181.938 259.504 182.628 258.721 183.107C258.125 183.479 257.416 183.665 256.594 183.665C255.616 183.665 254.823 183.425 254.217 182.946C253.62 182.476 253.322 181.831 253.322 181.009C253.322 179.786 254.124 178.823 255.728 178.119ZM256.653 177.62C257.65 176.994 258.149 176.187 258.149 175.199C258.149 174.729 258.012 174.358 257.738 174.084C257.464 173.8 257.093 173.658 256.623 173.658C256.105 173.658 255.714 173.815 255.449 174.128C255.205 174.402 255.083 174.764 255.083 175.214C255.083 175.673 255.2 176.094 255.435 176.475C255.689 176.906 256.095 177.287 256.653 177.62ZM256.638 178.486C255.904 178.838 255.386 179.195 255.083 179.557C254.789 179.909 254.642 180.354 254.642 180.892C254.642 181.44 254.819 181.87 255.171 182.183C255.523 182.486 256.007 182.638 256.623 182.638C257.239 182.638 257.724 182.481 258.076 182.168C258.438 181.855 258.619 181.435 258.619 180.906C258.619 180.398 258.467 179.958 258.164 179.586C257.861 179.214 257.352 178.847 256.638 178.486ZM264.389 183.665C263.088 183.665 262.158 182.985 261.601 181.625C261.239 180.755 261.058 179.674 261.058 178.383C261.058 176.759 261.342 175.419 261.909 174.363C262.466 173.306 263.293 172.778 264.389 172.778C265.455 172.778 266.272 173.292 266.839 174.319C267.436 175.365 267.734 176.705 267.734 178.339C267.734 179.875 267.489 181.107 267 182.036C266.423 183.122 265.553 183.665 264.389 183.665ZM266.457 178.368C266.457 175.385 265.768 173.893 264.389 173.893C263.019 173.893 262.334 175.375 262.334 178.339C262.334 179.581 262.447 180.515 262.672 181.141C262.995 182.07 263.567 182.535 264.389 182.535C265.768 182.535 266.457 181.146 266.457 178.368ZM272.14 183.665C270.839 183.665 269.91 182.985 269.353 181.625C268.991 180.755 268.81 179.674 268.81 178.383C268.81 176.759 269.093 175.419 269.661 174.363C270.218 173.306 271.045 172.778 272.14 172.778C273.206 172.778 274.023 173.292 274.591 174.319C275.187 175.365 275.486 176.705 275.486 178.339C275.486 179.875 275.241 181.107 274.752 182.036C274.175 183.122 273.304 183.665 272.14 183.665ZM274.209 178.368C274.209 175.385 273.519 173.893 272.14 173.893C270.771 173.893 270.086 175.375 270.086 178.339C270.086 179.581 270.199 180.515 270.424 181.141C270.746 182.07 271.319 182.535 272.14 182.535C273.519 182.535 274.209 181.146 274.209 178.368ZM279.892 183.665C278.591 183.665 277.662 182.985 277.104 181.625C276.742 180.755 276.561 179.674 276.561 178.383C276.561 176.759 276.845 175.419 277.412 174.363C277.97 173.306 278.796 172.778 279.892 172.778C280.958 172.778 281.775 173.292 282.342 174.319C282.939 175.365 283.237 176.705 283.237 178.339C283.237 179.875 282.993 181.107 282.504 182.036C281.927 183.122 281.056 183.665 279.892 183.665ZM281.961 178.368C281.961 175.385 281.271 173.893 279.892 173.893C278.523 173.893 277.838 175.375 277.838 178.339C277.838 179.581 277.95 180.515 278.175 181.141C278.498 182.07 279.07 182.535 279.892 182.535C281.271 182.535 281.961 181.146 281.961 178.368ZM287.644 183.665C286.343 183.665 285.413 182.985 284.856 181.625C284.494 180.755 284.313 179.674 284.313 178.383C284.313 176.759 284.597 175.419 285.164 174.363C285.722 173.306 286.548 172.778 287.644 172.778C288.71 172.778 289.527 173.292 290.094 174.319C290.691 175.365 290.989 176.705 290.989 178.339C290.989 179.875 290.744 181.107 290.255 182.036C289.678 183.122 288.808 183.665 287.644 183.665ZM289.712 178.368C289.712 175.385 289.023 173.893 287.644 173.893C286.274 173.893 285.59 175.375 285.59 178.339C285.59 179.581 285.702 180.515 285.927 181.141C286.25 182.07 286.822 182.535 287.644 182.535C289.023 182.535 289.712 181.146 289.712 178.368ZM293.459 178.221C294.085 177.41 294.823 177.004 295.674 177.004C296.662 177.004 297.415 177.361 297.934 178.075C298.344 178.652 298.55 179.381 298.55 180.261C298.55 181.337 298.242 182.188 297.626 182.814C297.058 183.371 296.315 183.65 295.395 183.65C293.312 183.65 292.27 182.281 292.27 179.542V178.984C292.27 177.204 292.622 175.756 293.327 174.641C294.08 173.438 295.165 172.837 296.584 172.837C296.76 172.837 296.975 172.846 297.229 172.866L297.728 173.482V173.937C297.337 173.878 297.014 173.849 296.76 173.849C294.872 173.849 293.772 175.307 293.459 178.221ZM297.288 180.202C297.288 179.586 297.122 179.077 296.789 178.676C296.466 178.265 296.051 178.06 295.542 178.06C294.994 178.06 294.491 178.29 294.031 178.75C293.63 179.151 293.429 179.586 293.429 180.055C293.429 180.779 293.615 181.376 293.987 181.845C294.349 182.295 294.828 182.52 295.425 182.52C295.972 182.52 296.418 182.31 296.76 181.89C297.112 181.459 297.288 180.897 297.288 180.202ZM302.918 183.665C301.617 183.665 300.688 182.985 300.13 181.625C299.768 180.755 299.587 179.674 299.587 178.383C299.587 176.759 299.871 175.419 300.438 174.363C300.996 173.306 301.822 172.778 302.918 172.778C303.984 172.778 304.801 173.292 305.368 174.319C305.965 175.365 306.263 176.705 306.263 178.339C306.263 179.875 306.019 181.107 305.529 182.036C304.952 183.122 304.082 183.665 302.918 183.665ZM304.987 178.368C304.987 175.385 304.297 173.893 302.918 173.893C301.548 173.893 300.864 175.375 300.864 178.339C300.864 179.581 300.976 180.515 301.201 181.141C301.524 182.07 302.096 182.535 302.918 182.535C304.297 182.535 304.987 181.146 304.987 178.368Z" fill="#454545"/>
<path d="M334.056 174.937C334.542 174.937 335.009 175.13 335.353 175.474C335.697 175.818 335.89 176.285 335.89 176.771V180.439C335.89 180.926 335.697 181.392 335.353 181.736C335.009 182.08 334.542 182.273 334.056 182.273H333.082C332.859 184.046 331.996 185.677 330.655 186.859C329.315 188.041 327.59 188.693 325.803 188.693V186.858C327.262 186.858 328.661 186.279 329.693 185.247C330.725 184.215 331.305 182.816 331.305 181.356V175.854C331.305 174.395 330.725 172.995 329.693 171.964C328.661 170.932 327.262 170.352 325.803 170.352C324.343 170.352 322.944 170.932 321.912 171.964C320.88 172.995 320.3 174.395 320.3 175.854V182.273H317.549C317.063 182.273 316.596 182.08 316.253 181.736C315.909 181.392 315.715 180.926 315.715 180.439V176.771C315.715 176.285 315.909 175.818 316.253 175.474C316.596 175.13 317.063 174.937 317.549 174.937H318.523C318.747 173.165 319.61 171.534 320.95 170.353C322.29 169.171 324.016 168.519 325.803 168.519C327.589 168.519 329.315 169.171 330.655 170.353C331.995 171.534 332.858 173.165 333.082 174.937H334.056ZM321.914 182.076L322.886 180.521C323.76 181.069 324.771 181.358 325.803 181.356C326.834 181.358 327.845 181.069 328.719 180.521L329.691 182.076C328.526 182.806 327.178 183.193 325.803 183.19C324.427 183.193 323.08 182.806 321.914 182.076Z" fill="#E5B83F"/>
<path d="M173.714 212.614V220.155H172.525V212.614H173.714ZM173.141 209.665C173.347 209.665 173.518 209.738 173.655 209.885C173.802 210.022 173.875 210.188 173.875 210.383C173.875 210.589 173.802 210.765 173.655 210.912C173.518 211.049 173.347 211.117 173.141 211.117C172.946 211.117 172.775 211.049 172.628 210.912C172.491 210.765 172.422 210.589 172.422 210.383C172.422 210.188 172.491 210.022 172.628 209.885C172.775 209.738 172.946 209.665 173.141 209.665ZM175.779 212.614H176.894V213.89C177.501 212.932 178.332 212.452 179.388 212.452C180.122 212.452 180.704 212.638 181.134 213.01C181.565 213.372 181.78 213.861 181.78 214.477V220.155H180.592V214.961C180.592 214.511 180.45 214.154 180.166 213.89C179.892 213.626 179.516 213.494 179.036 213.494C178.41 213.494 177.911 213.724 177.54 214.184C177.168 214.643 176.982 215.255 176.982 216.018V220.155H175.779V212.614ZM186.488 212.614V213.582H185.241V220.155H184.053V213.582H183.04V212.614H184.053V211.323C184.053 210.785 184.204 210.364 184.508 210.061C184.821 209.757 185.256 209.606 185.813 209.606C186.029 209.606 186.254 209.63 186.488 209.679V210.677H186.356C186.249 210.667 186.156 210.662 186.078 210.662C185.52 210.662 185.241 210.917 185.241 211.425V212.614H186.488ZM190.75 212.452C191.884 212.452 192.75 212.848 193.347 213.641C193.875 214.325 194.139 215.255 194.139 216.428C194.139 217.739 193.797 218.737 193.112 219.422C192.525 220.018 191.733 220.317 190.735 220.317C189.581 220.317 188.701 219.93 188.094 219.158C187.566 218.483 187.302 217.573 187.302 216.428C187.302 215.098 187.649 214.076 188.343 213.362C188.94 212.756 189.742 212.452 190.75 212.452ZM190.75 213.553C190.065 213.553 189.527 213.812 189.136 214.33C188.745 214.839 188.549 215.538 188.549 216.428C188.549 217.358 188.769 218.067 189.209 218.556C189.591 218.986 190.099 219.202 190.735 219.202C191.41 219.202 191.933 218.957 192.305 218.468C192.687 217.979 192.877 217.299 192.877 216.428C192.877 215.47 192.662 214.736 192.232 214.228C191.86 213.778 191.366 213.553 190.75 213.553ZM201.62 220.86C201.19 220.938 200.769 220.977 200.359 220.977C198.715 220.977 197.454 220.4 196.573 219.246C195.84 218.297 195.473 217.089 195.473 215.622C195.473 213.89 196.079 212.487 197.292 211.411C198.251 210.56 199.39 210.134 200.711 210.134C202.374 210.134 203.689 210.643 204.658 211.66C205.518 212.57 205.949 213.743 205.949 215.181C205.949 216.169 205.734 216.991 205.303 217.646C204.853 218.331 204.232 218.673 203.44 218.673C202.892 218.673 202.476 218.507 202.193 218.175C201.772 218.497 201.268 218.659 200.681 218.659C199.791 218.659 199.112 218.36 198.642 217.764C198.251 217.265 198.055 216.619 198.055 215.827C198.055 214.839 198.344 214.071 198.921 213.523C199.39 213.093 199.992 212.863 200.725 212.834C201.175 212.834 201.611 212.951 202.031 213.186L202.706 212.643H203.073V217.294C203.073 217.509 203.259 217.617 203.631 217.617C204.012 217.617 204.32 217.412 204.555 217.001C204.79 216.59 204.907 216.047 204.907 215.372C204.907 213.983 204.482 212.907 203.631 212.144C202.897 211.479 201.924 211.146 200.711 211.146C199.586 211.146 198.622 211.543 197.82 212.335C196.95 213.196 196.514 214.281 196.514 215.592C196.514 217.079 196.945 218.223 197.806 219.026C198.569 219.74 199.591 220.097 200.872 220.097C201.234 220.097 201.611 220.067 202.002 220.009V220.39L201.62 220.86ZM202.017 213.964C201.645 213.827 201.298 213.758 200.975 213.758C200.417 213.758 199.967 213.944 199.625 214.316C199.283 214.687 199.112 215.176 199.112 215.783C199.112 216.399 199.268 216.883 199.581 217.235C199.894 217.588 200.324 217.764 200.872 217.764C201.312 217.764 201.694 217.637 202.017 217.382V213.964ZM214.279 219.143V220.111C213.946 220.229 213.687 220.287 213.501 220.287C212.719 220.287 212.293 219.93 212.225 219.216C211.687 219.95 210.831 220.317 209.657 220.317C208.845 220.317 208.214 220.092 207.764 219.642C207.373 219.25 207.177 218.747 207.177 218.13C207.177 217.426 207.427 216.883 207.926 216.502C208.209 216.287 208.801 216.076 209.701 215.871L212.166 215.313L212.181 214.682C212.181 213.929 211.613 213.553 210.479 213.553C209.393 213.553 208.811 213.993 208.733 214.873H207.515C207.544 214.208 207.71 213.699 208.014 213.347C208.532 212.751 209.373 212.452 210.537 212.452C212.425 212.452 213.369 213.137 213.369 214.506V218.717C213.369 219.089 213.531 219.275 213.853 219.275C213.892 219.275 213.995 219.246 214.161 219.187C214.22 219.167 214.259 219.153 214.279 219.143ZM212.181 216.296L210.244 216.795C209.549 216.971 209.07 217.152 208.806 217.338C208.552 217.524 208.425 217.783 208.425 218.116C208.425 218.889 208.923 219.275 209.921 219.275C210.625 219.275 211.222 219.045 211.711 218.585C212.024 218.302 212.181 217.979 212.181 217.617V216.296ZM216.772 209.65V220.155H215.568V209.65H216.772ZM219.923 212.614V220.155H218.734V212.614H219.923ZM219.351 209.665C219.556 209.665 219.727 209.738 219.864 209.885C220.011 210.022 220.084 210.188 220.084 210.383C220.084 210.589 220.011 210.765 219.864 210.912C219.727 211.049 219.556 211.117 219.351 211.117C219.155 211.117 218.984 211.049 218.837 210.912C218.7 210.765 218.632 210.589 218.632 210.383C218.632 210.188 218.7 210.022 218.837 209.885C218.984 209.738 219.155 209.665 219.351 209.665ZM221.988 212.614H223.103V213.89C223.71 212.932 224.541 212.452 225.598 212.452C226.331 212.452 226.913 212.638 227.344 213.01C227.774 213.372 227.989 213.861 227.989 214.477V220.155H226.801V214.961C226.801 214.511 226.659 214.154 226.375 213.89C226.101 213.626 225.725 213.494 225.246 213.494C224.62 213.494 224.121 213.724 223.749 214.184C223.377 214.643 223.191 215.255 223.191 216.018V220.155H221.988V212.614ZM229.998 212.614H231.113V213.699C231.7 212.868 232.473 212.452 233.431 212.452C234.36 212.452 235.035 212.824 235.456 213.567C235.818 213.147 236.165 212.858 236.498 212.702C236.84 212.535 237.261 212.452 237.76 212.452C239.227 212.452 239.96 213.142 239.96 214.521V220.155H238.757V214.991C238.757 213.993 238.288 213.494 237.349 213.494C236.86 213.494 236.444 213.685 236.102 214.066C235.759 214.448 235.588 214.903 235.588 215.431V220.155H234.385V214.991C234.385 213.993 233.92 213.494 232.991 213.494C232.492 213.494 232.067 213.685 231.715 214.066C231.372 214.438 231.201 214.893 231.201 215.431V220.155H229.998V212.614ZM248.696 219.143V220.111C248.363 220.229 248.104 220.287 247.918 220.287C247.136 220.287 246.71 219.93 246.642 219.216C246.104 219.95 245.248 220.317 244.074 220.317C243.262 220.317 242.631 220.092 242.181 219.642C241.79 219.25 241.594 218.747 241.594 218.13C241.594 217.426 241.844 216.883 242.343 216.502C242.626 216.287 243.218 216.076 244.118 215.871L246.583 215.313L246.598 214.682C246.598 213.929 246.03 213.553 244.896 213.553C243.81 213.553 243.228 213.993 243.15 214.873H241.932C241.961 214.208 242.127 213.699 242.431 213.347C242.949 212.751 243.79 212.452 244.954 212.452C246.842 212.452 247.786 213.137 247.786 214.506V218.717C247.786 219.089 247.947 219.275 248.27 219.275C248.309 219.275 248.412 219.246 248.578 219.187C248.637 219.167 248.676 219.153 248.696 219.143ZM246.598 216.296L244.661 216.795C243.966 216.971 243.487 217.152 243.223 217.338C242.969 217.524 242.841 217.783 242.841 218.116C242.841 218.889 243.34 219.275 244.338 219.275C245.042 219.275 245.639 219.045 246.128 218.585C246.441 218.302 246.598 217.979 246.598 217.617V216.296ZM249.78 209.65H250.968V213.626C251.526 212.844 252.309 212.452 253.316 212.452C254.382 212.452 255.204 212.844 255.781 213.626C256.29 214.311 256.544 215.216 256.544 216.34C256.544 217.641 256.207 218.654 255.532 219.378C254.945 220.004 254.187 220.317 253.257 220.317C252.211 220.317 251.414 219.921 250.866 219.128V220.155H249.78V209.65ZM253.096 213.567C252.45 213.567 251.932 213.831 251.541 214.36C251.159 214.878 250.968 215.568 250.968 216.428C250.968 217.328 251.189 218.033 251.629 218.541C252.01 218.972 252.499 219.187 253.096 219.187C253.761 219.187 254.289 218.937 254.681 218.439C255.082 217.94 255.282 217.27 255.282 216.428C255.282 215.509 255.057 214.785 254.607 214.257C254.216 213.797 253.712 213.567 253.096 213.567ZM264.715 219.143V220.111C264.382 220.229 264.123 220.287 263.937 220.287C263.155 220.287 262.729 219.93 262.661 219.216C262.123 219.95 261.267 220.317 260.093 220.317C259.281 220.317 258.65 220.092 258.2 219.642C257.809 219.25 257.614 218.747 257.614 218.13C257.614 217.426 257.863 216.883 258.362 216.502C258.646 216.287 259.237 216.076 260.137 215.871L262.602 215.313L262.617 214.682C262.617 213.929 262.049 213.553 260.915 213.553C259.829 213.553 259.247 213.993 259.169 214.873H257.951C257.98 214.208 258.147 213.699 258.45 213.347C258.968 212.751 259.81 212.452 260.974 212.452C262.861 212.452 263.805 213.137 263.805 214.506V218.717C263.805 219.089 263.967 219.275 264.289 219.275C264.329 219.275 264.431 219.246 264.598 219.187C264.656 219.167 264.695 219.153 264.715 219.143ZM262.617 216.296L260.68 216.795C259.986 216.971 259.506 217.152 259.242 217.338C258.988 217.524 258.861 217.783 258.861 218.116C258.861 218.889 259.36 219.275 260.357 219.275C261.062 219.275 261.658 219.045 262.147 218.585C262.46 218.302 262.617 217.979 262.617 217.617V216.296ZM266.034 212.614H267.149V213.89C267.756 212.932 268.587 212.452 269.643 212.452C270.377 212.452 270.959 212.638 271.389 213.01C271.82 213.372 272.035 213.861 272.035 214.477V220.155H270.847V214.961C270.847 214.511 270.705 214.154 270.421 213.89C270.147 213.626 269.771 213.494 269.291 213.494C268.665 213.494 268.166 213.724 267.795 214.184C267.423 214.643 267.237 215.255 267.237 216.018V220.155H266.034V212.614ZM275.056 209.65V215.812L278.255 212.614H279.81L277.183 215.211L280.265 220.155H278.783L276.23 216.062L275.056 217.206V220.155H273.868V209.65H275.056ZM281.706 218.791C281.911 218.791 282.082 218.859 282.219 218.996C282.356 219.133 282.425 219.304 282.425 219.51C282.425 219.705 282.356 219.876 282.219 220.023C282.082 220.16 281.911 220.229 281.706 220.229C281.51 220.229 281.339 220.16 281.192 220.023C281.055 219.876 280.987 219.705 280.987 219.51C280.987 219.304 281.055 219.133 281.192 218.996C281.339 218.859 281.51 218.791 281.706 218.791ZM289.94 215.137H288.737C288.59 214.081 287.994 213.553 286.947 213.553C286.292 213.553 285.778 213.812 285.406 214.33C285.035 214.849 284.849 215.568 284.849 216.487C284.849 217.397 285.069 218.091 285.509 218.571C285.881 218.991 286.38 219.202 287.006 219.202C288.013 219.202 288.615 218.654 288.81 217.558H290.028C289.95 218.497 289.612 219.206 289.016 219.686C288.497 220.106 287.817 220.317 286.976 220.317C285.871 220.317 285.01 219.925 284.394 219.143C283.866 218.468 283.602 217.583 283.602 216.487C283.602 215.176 283.949 214.149 284.643 213.406C285.24 212.77 286.013 212.452 286.962 212.452C288.057 212.452 288.879 212.819 289.427 213.553C289.71 213.934 289.881 214.462 289.94 215.137ZM294.33 212.452C295.465 212.452 296.33 212.848 296.927 213.641C297.455 214.325 297.719 215.255 297.719 216.428C297.719 217.739 297.377 218.737 296.692 219.422C296.106 220.018 295.313 220.317 294.315 220.317C293.161 220.317 292.281 219.93 291.674 219.158C291.146 218.483 290.882 217.573 290.882 216.428C290.882 215.098 291.229 214.076 291.924 213.362C292.521 212.756 293.323 212.452 294.33 212.452ZM294.33 213.553C293.645 213.553 293.107 213.812 292.716 214.33C292.325 214.839 292.129 215.538 292.129 216.428C292.129 217.358 292.349 218.067 292.79 218.556C293.171 218.986 293.68 219.202 294.315 219.202C294.99 219.202 295.514 218.957 295.885 218.468C296.267 217.979 296.458 217.299 296.458 216.428C296.458 215.47 296.242 214.736 295.812 214.228C295.44 213.778 294.946 213.553 294.33 213.553ZM299.391 212.614H300.506V213.699C301.093 212.868 301.865 212.452 302.824 212.452C303.753 212.452 304.428 212.824 304.849 213.567C305.211 213.147 305.558 212.858 305.89 212.702C306.233 212.535 306.653 212.452 307.152 212.452C308.62 212.452 309.353 213.142 309.353 214.521V220.155H308.15V214.991C308.15 213.993 307.681 213.494 306.741 213.494C306.252 213.494 305.837 213.685 305.494 214.066C305.152 214.448 304.981 214.903 304.981 215.431V220.155H303.778V214.991C303.778 213.993 303.313 213.494 302.384 213.494C301.885 213.494 301.459 213.685 301.107 214.066C300.765 214.438 300.594 214.893 300.594 215.431V220.155H299.391V212.614Z" fill="#454545"/>
<g clip-path="url(#clip1_218_5259)">
<path d="M336.494 213.184C336.62 213.084 336.807 213.177 336.807 213.335V219.928C336.807 220.782 336.114 221.475 335.259 221.475H321.848C320.993 221.475 320.3 220.782 320.3 219.928V213.338C320.3 213.177 320.484 213.087 320.613 213.187C321.335 213.748 322.293 214.46 325.581 216.849C326.261 217.346 327.409 218.39 328.553 218.384C329.704 218.393 330.875 217.326 331.529 216.849C334.818 214.46 335.772 213.745 336.494 213.184ZM328.553 217.349C329.301 217.362 330.378 216.408 330.92 216.014C335.198 212.91 335.524 212.639 336.51 211.865C336.697 211.72 336.807 211.494 336.807 211.256V210.643C336.807 209.789 336.114 209.096 335.259 209.096H321.848C320.993 209.096 320.3 209.789 320.3 210.643V211.256C320.3 211.494 320.41 211.717 320.597 211.865C321.583 212.636 321.909 212.91 326.187 216.014C326.729 216.408 327.806 217.362 328.553 217.349Z" fill="#E5B83F"/>
</g>
<path d="M132.469 249.911C132.665 249.911 132.831 249.984 132.968 250.131C133.115 250.268 133.188 250.434 133.188 250.63C133.188 250.835 133.115 251.011 132.968 251.158C132.831 251.295 132.665 251.363 132.469 251.363C132.274 251.363 132.103 251.295 131.956 251.158C131.819 251.011 131.75 250.835 131.75 250.63C131.75 250.434 131.819 250.268 131.956 250.131C132.103 249.984 132.274 249.911 132.469 249.911ZM137.311 250.087V255.794H138.06V256.836H137.311C137.282 258 136.891 258.89 136.137 259.506C135.443 260.064 134.538 260.343 133.423 260.343H131.794C130.709 260.343 129.823 260.083 129.139 259.565C128.307 258.929 127.892 257.975 127.892 256.704V253.637L128.522 253.124H129.139V256.675C129.139 257.653 129.393 258.333 129.902 258.714C130.42 259.105 131.32 259.301 132.601 259.301C133.824 259.301 134.685 259.135 135.184 258.802C135.771 258.401 136.064 257.692 136.064 256.675V250.087H137.311ZM141.901 250.087V255.442C141.901 255.559 141.886 255.677 141.857 255.794H142.635V256.836H142.062L141.637 256.322H141.593C141.329 256.665 140.986 256.836 140.566 256.836H138.013V255.794H140.096C140.253 255.794 140.38 255.745 140.478 255.647C140.595 255.54 140.654 255.403 140.654 255.237V250.087H141.901ZM139.392 258.362C139.588 258.362 139.754 258.43 139.891 258.567C140.038 258.714 140.111 258.885 140.111 259.081C140.111 259.286 140.038 259.457 139.891 259.594C139.754 259.741 139.588 259.814 139.392 259.814C139.196 259.814 139.025 259.741 138.878 259.594C138.741 259.457 138.673 259.286 138.673 259.081C138.673 258.885 138.741 258.714 138.878 258.567C139.025 258.43 139.196 258.362 139.392 258.362ZM141.167 258.362C141.373 258.362 141.544 258.43 141.681 258.567C141.828 258.714 141.901 258.885 141.901 259.081C141.901 259.286 141.828 259.457 141.681 259.594C141.544 259.741 141.373 259.814 141.167 259.814C140.972 259.814 140.8 259.741 140.654 259.594C140.517 259.457 140.448 259.286 140.448 259.081C140.448 258.885 140.517 258.714 140.654 258.567C140.8 258.43 140.972 258.362 141.167 258.362ZM144.566 252.478C144.908 251.617 145.48 250.947 146.282 250.468C146.928 250.096 147.598 249.911 148.292 249.911C148.987 249.911 149.652 250.096 150.288 250.468C151.1 250.947 151.672 251.617 152.005 252.478L151.872 252.83C151.198 253.114 150.645 253.5 150.215 253.99C149.774 254.498 149.496 255.1 149.378 255.794H152.151V256.836H149.173C148.879 256.836 148.596 256.694 148.322 256.41H148.278C148.014 256.694 147.73 256.836 147.427 256.836H142.526V255.794H147.207C147.099 255.198 146.855 254.635 146.473 254.107C146.033 253.559 145.446 253.134 144.712 252.83L144.566 252.478ZM150.655 252.332C150.332 251.862 149.965 251.51 149.554 251.275C149.163 251.07 148.742 250.967 148.292 250.967C147.842 250.967 147.437 251.06 147.075 251.246C146.644 251.461 146.263 251.823 145.93 252.332C146.439 252.557 146.874 252.874 147.236 253.285C147.686 253.794 148.028 254.43 148.263 255.193H148.307C148.552 254.4 148.904 253.75 149.364 253.241C149.735 252.85 150.166 252.547 150.655 252.332ZM166.008 250.087V255.442C166.008 255.569 165.993 255.687 165.964 255.794H166.756V256.836H166.169L165.759 256.322H165.715C165.441 256.665 165.098 256.836 164.688 256.836H161.797L161.386 256.322H161.342C161.068 256.665 160.726 256.836 160.315 256.836H157.425L157.014 256.322H156.97C156.696 256.665 156.354 256.836 155.943 256.836H152.055V255.794H155.459C155.83 255.794 156.016 255.608 156.016 255.237V251.774H157.263V255.442C157.263 255.569 157.254 255.687 157.234 255.794H159.831C160.203 255.794 160.389 255.608 160.389 255.237V250.923H161.636V255.442C161.636 255.569 161.621 255.687 161.592 255.794H164.203C164.575 255.794 164.761 255.608 164.761 255.237V250.087H166.008ZM168.152 246.859C168.358 246.859 168.529 246.932 168.666 247.079C168.803 247.216 168.871 247.382 168.871 247.578C168.871 247.783 168.803 247.959 168.666 248.106C168.529 248.243 168.358 248.311 168.152 248.311C167.957 248.311 167.785 248.243 167.639 248.106C167.502 247.959 167.433 247.783 167.433 247.578C167.433 247.382 167.502 247.216 167.639 247.079C167.785 246.932 167.957 246.859 168.152 246.859ZM169.942 246.859C170.138 246.859 170.304 246.932 170.441 247.079C170.588 247.216 170.661 247.382 170.661 247.578C170.661 247.783 170.588 247.959 170.441 248.106C170.304 248.243 170.138 248.311 169.942 248.311C169.737 248.311 169.561 248.243 169.414 248.106C169.277 247.959 169.209 247.783 169.209 247.578C169.209 247.382 169.277 247.216 169.414 247.079C169.561 246.932 169.737 246.859 169.942 246.859ZM170.529 250.087V255.442C170.529 255.559 170.514 255.677 170.485 255.794H171.263V256.836H170.691L170.265 256.322H170.221C169.957 256.665 169.615 256.836 169.194 256.836H166.641V255.794H168.724C168.881 255.794 169.008 255.745 169.106 255.647C169.223 255.54 169.282 255.403 169.282 255.237V250.087H170.529ZM175.043 246.331V255.442C175.043 255.824 174.915 256.146 174.661 256.41C174.397 256.694 174.079 256.836 173.707 256.836H171.154V255.794H173.238C173.424 255.794 173.566 255.731 173.663 255.603C173.751 255.496 173.795 255.374 173.795 255.237V246.331H175.043ZM178.316 246.331V256.689L177.685 257.203H177.069V246.331H178.316ZM184.628 256.117C183.748 255.393 183.308 254.444 183.308 253.271C183.308 252.185 183.665 251.329 184.379 250.703C184.995 250.175 185.778 249.911 186.727 249.911C187.245 249.911 187.788 249.994 188.355 250.16V251.143C187.807 250.996 187.304 250.923 186.844 250.923C186.15 250.923 185.592 251.138 185.171 251.569C184.761 251.999 184.555 252.576 184.555 253.3C184.555 253.975 184.756 254.562 185.157 255.061C185.538 255.55 186.008 255.794 186.565 255.794H189.558V256.205L189.045 256.836H186.404C185.582 256.836 184.961 257.071 184.54 257.54C184.237 257.873 184.081 258.333 184.071 258.919C184.1 260.524 185.064 261.326 186.961 261.326C187.568 261.326 188.209 261.247 188.883 261.091V261.502L188.311 262.206C187.94 262.314 187.45 262.367 186.844 262.367C185.876 262.367 185.078 262.196 184.452 261.854C183.376 261.267 182.834 260.294 182.824 258.934C182.843 258.034 183.083 257.335 183.543 256.836C183.826 256.533 184.188 256.293 184.628 256.117ZM194.625 250.087V256.704C194.625 257.79 194.317 258.646 193.701 259.272C193.222 259.761 192.576 260.083 191.764 260.24C191.451 260.299 191.109 260.328 190.737 260.328C190.502 260.328 190.277 260.323 190.062 260.313L189.578 259.712V259.242C189.862 259.281 190.17 259.301 190.502 259.301C192.42 259.301 193.378 258.421 193.378 256.66V250.087H194.625ZM197.917 246.331V255.237C197.917 255.393 197.966 255.525 198.064 255.633C198.171 255.74 198.308 255.794 198.475 255.794H198.665V256.836H197.99C197.677 256.836 197.404 256.733 197.169 256.528C196.836 256.244 196.67 255.882 196.67 255.442V246.331H197.917ZM207.544 245.45C207.74 245.45 207.901 245.519 208.028 245.656C208.165 245.793 208.234 245.954 208.234 246.14C208.234 246.326 208.165 246.487 208.028 246.624C207.901 246.761 207.74 246.829 207.544 246.829C207.358 246.829 207.197 246.761 207.06 246.624C206.923 246.487 206.855 246.326 206.855 246.14C206.855 245.954 206.923 245.793 207.06 245.656C207.197 245.519 207.358 245.45 207.544 245.45ZM206.649 246.859C206.855 246.859 207.026 246.932 207.163 247.079C207.31 247.216 207.383 247.382 207.383 247.578C207.383 247.783 207.31 247.959 207.163 248.106C207.026 248.243 206.855 248.311 206.649 248.311C206.454 248.311 206.282 248.243 206.136 248.106C205.999 247.959 205.93 247.783 205.93 247.578C205.93 247.382 205.999 247.216 206.136 247.079C206.282 246.932 206.454 246.859 206.649 246.859ZM208.439 246.859C208.635 246.859 208.801 246.932 208.938 247.079C209.085 247.216 209.158 247.382 209.158 247.578C209.158 247.783 209.085 247.959 208.938 248.106C208.801 248.243 208.635 248.311 208.439 248.311C208.244 248.311 208.072 248.243 207.926 248.106C207.789 247.959 207.72 247.783 207.72 247.578C207.72 247.382 207.789 247.216 207.926 247.079C208.072 246.932 208.244 246.859 208.439 246.859ZM212.518 250.087V255.442C212.518 255.824 212.386 256.151 212.122 256.425C211.868 256.699 211.56 256.836 211.198 256.836H208.366L207.896 256.322H207.852C207.579 256.665 207.236 256.836 206.825 256.836H204.008L203.524 256.322H203.48C203.206 256.665 202.864 256.836 202.453 256.836H198.565V255.794H201.969C202.34 255.794 202.526 255.608 202.526 255.237V251.774H203.773V255.442C203.773 255.569 203.764 255.687 203.744 255.794H206.341C206.713 255.794 206.899 255.608 206.899 255.237V250.923H208.146V255.442C208.146 255.569 208.131 255.687 208.102 255.794H210.713C211.085 255.794 211.271 255.608 211.271 255.237V250.087H212.518ZM220.386 252.977V254.034H216.762V252.977H220.386ZM228.102 246.859C228.297 246.859 228.464 246.932 228.601 247.079C228.747 247.216 228.821 247.382 228.821 247.578C228.821 247.783 228.747 247.959 228.601 248.106C228.464 248.243 228.297 248.311 228.102 248.311C227.906 248.311 227.735 248.243 227.588 248.106C227.451 247.959 227.383 247.783 227.383 247.578C227.383 247.382 227.451 247.216 227.588 247.079C227.735 246.932 227.906 246.859 228.102 246.859ZM229.877 246.859C230.082 246.859 230.254 246.932 230.391 247.079C230.537 247.216 230.611 247.382 230.611 247.578C230.611 247.783 230.537 247.959 230.391 248.106C230.254 248.243 230.082 248.311 229.877 248.311C229.681 248.311 229.51 248.243 229.364 248.106C229.227 247.959 229.158 247.783 229.158 247.578C229.158 247.382 229.227 247.216 229.364 247.079C229.51 246.932 229.681 246.859 229.877 246.859ZM230.611 249.691V254.312C230.611 255.105 230.386 255.731 229.936 256.19C229.437 256.709 228.684 256.968 227.676 256.968C226.796 256.968 226.082 256.743 225.534 256.293C224.8 255.687 224.434 254.772 224.434 253.549C224.434 252.444 224.771 251.534 225.446 250.82C226.072 250.165 226.855 249.837 227.794 249.837C228.312 249.837 228.835 249.955 229.364 250.189L229.994 249.691H230.611ZM229.364 251.216C228.933 251.001 228.498 250.894 228.058 250.894C227.285 250.894 226.678 251.197 226.238 251.803C225.867 252.292 225.681 252.879 225.681 253.564C225.681 254.317 225.857 254.899 226.209 255.31C226.561 255.721 227.05 255.926 227.676 255.926C228.263 255.926 228.693 255.775 228.967 255.471C229.231 255.178 229.364 254.787 229.364 254.298V251.216ZM235.619 250.087V256.704C235.619 257.79 235.311 258.646 234.695 259.272C234.215 259.761 233.57 260.083 232.758 260.24C232.445 260.299 232.103 260.328 231.731 260.328C231.496 260.328 231.271 260.323 231.056 260.313L230.572 259.712V259.242C230.855 259.281 231.164 259.301 231.496 259.301C233.413 259.301 234.372 258.421 234.372 256.66V250.087H235.619ZM240.774 256.836C239.659 256.836 238.803 256.464 238.206 255.721C237.708 255.105 237.458 254.312 237.458 253.344C237.458 252.239 237.791 251.378 238.456 250.762C239.053 250.194 239.84 249.911 240.818 249.911C241.581 249.911 242.217 250.101 242.726 250.483C243.342 250.962 243.65 251.661 243.65 252.581V255.794H244.119V256.836H243.65C243.611 257.863 243.303 258.67 242.726 259.257C242.285 259.707 241.713 260.015 241.009 260.181C240.608 260.279 240.187 260.328 239.747 260.328C239.512 260.328 239.287 260.323 239.072 260.313L238.588 259.712V259.242C238.881 259.281 239.19 259.301 239.512 259.301C241.381 259.301 242.339 258.479 242.388 256.836H240.774ZM242.388 252.581C242.388 252.082 242.241 251.686 241.948 251.392C241.664 251.109 241.288 250.967 240.818 250.967C240.163 250.967 239.644 251.187 239.263 251.627C238.891 252.067 238.705 252.679 238.705 253.461C238.705 254.156 238.896 254.718 239.278 255.149C239.659 255.579 240.153 255.794 240.759 255.794H242.388V252.581ZM247.859 253.315C249.209 251.045 250.979 249.911 253.171 249.911C254.335 249.911 255.269 250.273 255.973 250.996C256.609 251.652 256.927 252.483 256.927 253.491V255.442C256.927 255.569 256.912 255.687 256.883 255.794H257.396V256.836H257.088L256.677 256.322H256.633C256.359 256.665 256.017 256.836 255.606 256.836H244V255.794H246.641L246.627 250.087H247.874L247.859 253.315ZM255.68 253.359C255.67 252.576 255.381 251.97 254.814 251.539C254.344 251.168 253.728 250.982 252.965 250.982C252.202 250.982 251.488 251.192 250.823 251.613C249.591 252.385 248.603 253.779 247.859 255.794H255.122C255.494 255.794 255.68 255.608 255.68 255.237V253.359ZM260.554 246.859C260.76 246.859 260.931 246.932 261.068 247.079C261.215 247.216 261.288 247.382 261.288 247.578C261.288 247.783 261.215 247.959 261.068 248.106C260.931 248.243 260.76 248.311 260.554 248.311C260.359 248.311 260.188 248.243 260.041 248.106C259.904 247.959 259.835 247.783 259.835 247.578C259.835 247.382 259.904 247.216 260.041 247.079C260.188 246.932 260.359 246.859 260.554 246.859ZM261.185 250.087V255.442C261.185 255.559 261.171 255.677 261.141 255.794H261.919V256.836H261.347L260.921 256.322H260.877C260.613 256.665 260.271 256.836 259.85 256.836H257.297V255.794H259.381C259.537 255.794 259.664 255.745 259.762 255.647C259.879 255.54 259.938 255.403 259.938 255.237V250.087H261.185ZM264.701 255.794C264.3 255.139 264.099 254.391 264.099 253.549C264.099 252.366 264.432 251.451 265.097 250.806C265.694 250.238 266.481 249.945 267.459 249.925C268.164 249.925 268.746 250.077 269.205 250.38C269.91 250.85 270.262 251.583 270.262 252.581V255.237C270.262 255.374 270.296 255.491 270.365 255.589C270.453 255.716 270.57 255.784 270.717 255.794H270.746V256.836H270.379C269.939 256.836 269.587 256.665 269.323 256.322C268.795 256.958 268.125 257.276 267.313 257.276C266.462 257.276 265.723 256.958 265.097 256.322H265.068L264.657 256.836H261.811V255.794H264.701ZM269.015 252.581C269.015 252.072 268.853 251.666 268.531 251.363C268.247 251.099 267.88 250.967 267.43 250.967C266.804 250.967 266.3 251.202 265.919 251.671C265.537 252.131 265.347 252.737 265.347 253.491C265.347 254.283 265.547 254.943 265.948 255.471C266.33 255.98 266.809 256.234 267.386 256.234C267.953 256.234 268.496 255.975 269.015 255.457V252.581ZM274.511 246.331V255.442C274.511 255.824 274.384 256.146 274.129 256.41C273.865 256.694 273.547 256.836 273.176 256.836H270.623V255.794H272.706C272.892 255.794 273.034 255.731 273.132 255.603C273.22 255.496 273.264 255.374 273.264 255.237V246.331H274.511ZM277.784 246.331V256.689L277.153 257.203H276.537V246.331H277.784ZM285.652 252.977V254.034H282.028V252.977H285.652ZM291.789 249.911C291.985 249.911 292.151 249.984 292.288 250.131C292.435 250.268 292.508 250.434 292.508 250.63C292.508 250.835 292.435 251.011 292.288 251.158C292.151 251.295 291.985 251.363 291.789 251.363C291.594 251.363 291.422 251.295 291.276 251.158C291.139 251.011 291.07 250.835 291.07 250.63C291.07 250.434 291.139 250.268 291.276 250.131C291.422 249.984 291.594 249.911 291.789 249.911ZM296.631 250.087V256.704C296.631 257.878 296.274 258.782 295.56 259.418C294.865 260.035 293.926 260.343 292.743 260.343H291.114C289.95 260.343 289.021 260.044 288.327 259.448C287.583 258.812 287.211 257.897 287.211 256.704V253.637L287.842 253.124H288.459V256.675C288.459 257.653 288.713 258.333 289.222 258.714C289.74 259.105 290.64 259.301 291.921 259.301C293.144 259.301 294.005 259.135 294.504 258.802C295.09 258.401 295.384 257.692 295.384 256.675V250.087H296.631ZM299.702 249.999C300.054 249.94 300.43 249.911 300.831 249.911C301.917 249.911 302.793 250.238 303.458 250.894C304.054 251.5 304.353 252.268 304.353 253.197V255.442C304.353 255.569 304.343 255.687 304.323 255.794H304.734V256.836H304.514L304.103 256.322H304.059C303.981 256.42 303.893 256.508 303.795 256.587C303.56 256.753 303.306 256.836 303.032 256.836H298.22V255.794H302.563C302.925 255.794 303.106 255.608 303.106 255.237V253.373C303.106 252.679 302.895 252.102 302.475 251.642C302.025 251.172 301.33 250.933 300.391 250.923C300.117 250.923 299.887 250.943 299.702 250.982V249.999ZM307.823 255.794C307.187 255.139 306.869 254.298 306.869 253.271C306.869 252.175 307.231 251.314 307.955 250.688C308.561 250.17 309.344 249.911 310.303 249.911C310.821 249.911 311.364 249.994 311.931 250.16V251.143C311.354 250.996 310.85 250.923 310.42 250.923C309.696 250.923 309.129 251.148 308.718 251.598C308.317 252.038 308.116 252.649 308.116 253.432C308.116 254.068 308.332 254.63 308.762 255.119C309.163 255.569 309.628 255.794 310.156 255.794H313.12V256.205L312.606 256.836H304.61V255.794H307.823Z" fill="#454545"/>
<path d="M330.388 251.509C329.78 251.509 329.197 251.267 328.767 250.837C328.337 250.407 328.095 249.824 328.095 249.216C328.095 248.608 328.337 248.025 328.767 247.595C329.197 247.165 329.78 246.923 330.388 246.923C330.996 246.923 331.579 247.165 332.009 247.595C332.439 248.025 332.68 248.608 332.68 249.216C332.68 249.517 332.621 249.815 332.506 250.093C332.391 250.371 332.222 250.624 332.009 250.837C331.796 251.05 331.543 251.219 331.265 251.334C330.987 251.449 330.689 251.509 330.388 251.509ZM330.388 242.797C328.685 242.797 327.053 243.473 325.849 244.677C324.645 245.881 323.969 247.514 323.969 249.216C323.969 254.03 330.388 261.137 330.388 261.137C330.388 261.137 336.807 254.03 336.807 249.216C336.807 247.514 336.131 245.881 334.927 244.677C333.723 243.473 332.09 242.797 330.388 242.797Z" fill="#E5B83F"/>
<circle cx="371.883" cy="94.0101" r="16.7356" fill="#166BB4"/>
<g clip-path="url(#clip2_218_5259)">
<path d="M364.238 102.614H379.927" stroke="#F7C94E" stroke-linecap="round" stroke-linejoin="round"/>
<path d="M364.238 100.375H379.927" stroke="#F7C94E" stroke-linecap="round" stroke-linejoin="round"/>
<path d="M365.358 92.5303V98.1337" stroke="#F7C94E" stroke-linecap="round" stroke-linejoin="round"/>
<path d="M367.6 92.5303V98.1337" stroke="#F7C94E" stroke-linecap="round" stroke-linejoin="round"/>
<path d="M370.962 92.5303V98.1337" stroke="#F7C94E" stroke-linecap="round" stroke-linejoin="round"/>
<path d="M373.204 92.5303V98.1337" stroke="#F7C94E" stroke-linecap="round" stroke-linejoin="round"/>
<path d="M376.565 92.5303V98.1337" stroke="#F7C94E" stroke-linecap="round" stroke-linejoin="round"/>
<path d="M378.807 92.5303V98.1337" stroke="#F7C94E" stroke-linecap="round" stroke-linejoin="round"/>
<path d="M379.927 90.2876H364.238L371.477 85.9826C371.657 85.8664 371.868 85.8047 372.083 85.8047C372.297 85.8047 372.508 85.8664 372.689 85.9826L379.927 90.2876Z" stroke="#F7C94E" stroke-linecap="round" stroke-linejoin="round"/>
</g>
<defs>
<filter id="filter0_d_218_5259" x="0.489361" y="0.24468" width="486.021" height="370.476" filterUnits="userSpaceOnUse" color-interpolation-filters="sRGB">
<feFlood flood-opacity="0" result="BackgroundImageFix"/>
<feColorMatrix in="SourceAlpha" type="matrix" values="0 0 0 0 0 0 0 0 0 0 0 0 0 0 0 0 0 0 127 0" result="hardAlpha"/>
<feOffset dy="13.7553"/>
<feGaussianBlur stdDeviation="13.7553"/>
<feColorMatrix type="matrix" values="0 0 0 0 0.823529 0 0 0 0 0.85098 0 0 0 0 0.878431 0 0 0 0.35 0"/>
<feBlend mode="normal" in2="BackgroundImageFix" result="effect1_dropShadow_218_5259"/>
<feBlend mode="normal" in="SourceGraphic" in2="effect1_dropShadow_218_5259" result="shape"/>
</filter>
<clipPath id="clip0_218_5259">
<rect width="16.5064" height="16.5064" fill="white" transform="translate(320.301 133.671)"/>
</clipPath>
<clipPath id="clip1_218_5259">
<rect width="16.5064" height="16.5064" fill="white" transform="translate(320.301 207.033)"/>
</clipPath>
<clipPath id="clip2_218_5259">
<rect width="17.931" height="17.931" fill="white" transform="translate(363.117 85.2427)"/>
</clipPath>
</defs>
</svg>
